<svg id="Group_2360" data-name="Group 2360" xmlns="http://www.w3.org/2000/svg" xmlns:xlink="http://www.w3.org/1999/xlink" width="116.351" height="117.861" viewBox="0 0 116.351 117.861">
  <defs>
    <clipPath id="clip-path">
      <rect id="Rectangle_1304" data-name="Rectangle 1304" width="116.351" height="117.861" fill="#ff197d"/>
    </clipPath>
  </defs>
  <g id="Group_2359" data-name="Group 2359" clip-path="url(#clip-path)">
    <path id="Path_5077" data-name="Path 5077" d="M102.18,117.861a12.5,12.5,0,0,1-6.6-3.912C90.306,108.7,84.963,103.516,79.65,98.3a7.381,7.381,0,0,1-.854-.93,1.681,1.681,0,0,1,2.226-2.414,5.673,5.673,0,0,1,1.048.887Q90.5,104.1,98.922,112.363c2.217,2.168,4.61,2.612,6.875,1.324a5.389,5.389,0,0,0,1.378-8.674c-4.5-4.563-9.113-9.007-13.711-13.47a1.573,1.573,0,0,0-1.218-.322C80.717,93.5,69.078,93.691,57.408,92.972A84.3,84.3,0,0,1,38.5,89.82,14.254,14.254,0,0,1,28.962,81.5c-1.571-3.659-3.041-7.362-4.538-11.052C23.023,67,23.96,64,26.531,61.568a43.631,43.631,0,0,1,5.08-3.718,18.767,18.767,0,0,1,1.855-.979,8.071,8.071,0,0,1-1.1-.735c-3.655-3.559-7.286-7.143-10.956-10.687A5.082,5.082,0,0,0,19.62,44.3,50.39,50.39,0,0,1,2.779,34.165a7.61,7.61,0,0,1-.784-11.007c3.016-3.37,6.278-6.52,9.442-9.757,1.34-1.371,2.633-2.8,4.073-4.06A7.676,7.676,0,0,1,26.3,9.663a31.543,31.543,0,0,1,2.435,2.758,1.727,1.727,0,0,1-.055,2.479,1.692,1.692,0,0,1-2.54-.246c-.659-.7-1.252-1.453-1.891-2.168-1.97-2.208-4.7-2.378-6.768-.3q-6.377,6.4-12.65,12.9a4.279,4.279,0,0,0,.176,6.437,48.917,48.917,0,0,0,14.873,9.222c.917.346,1.552.346,2.163-.482A8.3,8.3,0,0,1,23.3,39.142c-.4-.419-.673-.721-.963-1.006q-4.682-4.6-9.366-9.19A5.838,5.838,0,0,1,12.135,28a1.583,1.583,0,0,1,.177-2.1,1.538,1.538,0,0,1,2.091-.263,6.85,6.85,0,0,1,1.042.9c3.372,3.3,6.738,6.6,10.006,9.808l3.836-3.656c-.224-.236-.495-.54-.785-.824q-4.683-4.6-9.368-9.187a6.534,6.534,0,0,1-.841-.939,1.681,1.681,0,0,1,2.347-2.33,7.24,7.24,0,0,1,.946.837q4.647,4.549,9.288,9.1c.3.29.6.573.875.836a1.13,1.13,0,0,0,.188-.089c2.061-1.823,2.1-1.838,1.009-4.351-.622-1.438-1.381-2.818-2.079-4.224-.609-1.226-.429-2.212.493-2.712.941-.51,1.921-.171,2.524,1.051,1.1,2.229,2.1,4.508,3.166,6.753a4.907,4.907,0,0,0,.962,1.513A218.459,218.459,0,0,1,59.083,50.3a1.929,1.929,0,0,0,1.848.825c1.4-.126,2.806-.148,4.428-.224-.44-.6-.748-1.022-1.06-1.441A94.708,94.708,0,0,1,50.892,25.849a32.029,32.029,0,0,1-2.339-11.422c.028-3.442,1.12-6.372,4.068-8.435C53.845,5.135,55,4.177,56.148,3.218A13.329,13.329,0,0,1,61.882,0h2.763c1.324.347,2.679.607,3.967,1.056A44.874,44.874,0,0,1,82.336,9.307,113.767,113.767,0,0,1,109.808,42.96c2.992,5.5,5.459,11.238,6.326,17.518.682,4.937-.072,9.353-4.72,12.279A2.776,2.776,0,0,0,110.476,74C109.294,76.78,108.2,79.6,107,82.378a12.213,12.213,0,0,1-7.792,6.987c-.7.226-1.39.469-1.958.661,1.584,1.668,3.089,3.3,4.649,4.885,2.774,2.811,5.666,5.511,8.349,8.405a8.408,8.408,0,0,1,1.056,9.36,9.809,9.809,0,0,1-7.052,5.185ZM58.533,9.794c.086.85.137,1.693.261,2.524a44.23,44.23,0,0,0,4.343,12.9,111.021,111.021,0,0,0,23.31,31.416,59.661,59.661,0,0,0,14.6,10.7,15.675,15.675,0,0,0,7.346,2.034,3.9,3.9,0,0,0,4.093-3.026,13.249,13.249,0,0,0,.371-3.633,31.955,31.955,0,0,0-3.145-11.927A105.958,105.958,0,0,0,77.236,9.744,33.2,33.2,0,0,0,65.9,3.819c-4.06-1.125-6.618.192-7.2,3.807-.115.716-.111,1.451-.162,2.169M40.665,67.19q.006.219.013.438c.341.129.674.282,1.024.382,1.95.559,3.907,1.094,5.855,1.66,1.229.357,1.734,1.15,1.455,2.2-.253.95-1.093,1.4-2.3,1.084-2.222-.576-4.441-1.176-6.635-1.847a3.766,3.766,0,0,1,.029-7.313c2.98-.851,5.962-1.741,9-2.337a99.022,99.022,0,0,1,20.83-1.675c.933.016,1.866,0,3.017,0-1.471-1.66-2.751-3.181-4.128-4.608a2.371,2.371,0,0,0-1.555-.649A111.053,111.053,0,0,0,45.9,56.653c-5.356,1.088-10.578,2.593-15.142,5.767-4.664,3.243-4.65,6.861.02,10.087,4.207,2.906,8.988,4.438,13.9,5.535a110.042,110.042,0,0,0,45.332.407c1.877-.363,3.715-.925,5.663-1.417-2.334-1.264-4.473-2.442-6.637-3.572a1.887,1.887,0,0,0-1.084-.094c-1.477.224-2.942.531-4.421.742a113.576,113.576,0,0,1-21.235.9c-2.334-.106-4.665-.352-6.989-.609a1.639,1.639,0,0,1-1.571-1.889,1.68,1.68,0,0,1,1.867-1.49c.881.022,1.76.115,2.638.2a108.788,108.788,0,0,0,22.167-.186c1.332-.142,2.653-.38,4.078-.588-2.627-2.317-5.086-4.505-7.578-6.656a1.908,1.908,0,0,0-1.061-.3A99.019,99.019,0,0,0,46.02,65.654c-1.8.432-3.571,1.02-5.355,1.536m64.6,10.154c-1.22.368-2.3.615-3.328,1.017a86.892,86.892,0,0,1-23.958,5.211,112.2,112.2,0,0,1-20.575-.026,80.978,80.978,0,0,1-18.154-3.417c-2.85-.939-5.613-2.139-8.461-3.239.37.918.76,1.9,1.162,2.876a11.267,11.267,0,0,0,7.832,6.827,87.987,87.987,0,0,0,20.078,3.066c11.181.515,22.325.294,33.31-2.193a51.982,51.982,0,0,0,5.3-1.5c4.018-1.371,5.545-4.778,6.792-8.617M23.955,42.951a6.05,6.05,0,0,0,.42.565C28.339,47.357,32.3,51.2,36.293,55.01a1.647,1.647,0,0,0,1.3.276c4.222-.935,8.426-1.951,12.649-2.883,1.724-.381,3.481-.611,5.359-.933A223.648,223.648,0,0,0,36.344,31.3L23.955,42.951m81.794,29.723c-1.073-.315-2.066-.553-3.022-.894a44.577,44.577,0,0,1-13.341-8.007,112.693,112.693,0,0,1-29.45-37.252,44.911,44.911,0,0,1-4.62-14.25c-.15-1.19-.169-2.4-.253-3.672-2.509,1.386-3.109,3.6-3.079,6.095a29.571,29.571,0,0,0,2.152,9.948,90.609,90.609,0,0,0,13.53,23.526c6.408,8.349,13.573,15.944,22.4,21.811a26.288,26.288,0,0,0,10.227,4.509,5.608,5.608,0,0,0,5.456-1.814" transform="translate(0)" fill="#ff197d"/>
  </g>
</svg>
