<svg xmlns="http://www.w3.org/2000/svg" xmlns:xlink="http://www.w3.org/1999/xlink" width="18" height="17.988" viewBox="0 0 18 17.988">
  <defs>
    <clipPath id="clip-path">
      <rect id="Rectangle_295" data-name="Rectangle 295" width="18" height="17.988" transform="translate(0 0)"/>
    </clipPath>
  </defs>
  <g id="Group_368" data-name="Group 368" transform="translate(0 0.003)">
    <g id="Group_367" data-name="Group 367" transform="translate(0 -0.003)" clip-path="url(#clip-path)">
      <path id="Path_572" data-name="Path 572" d="M0,6.957a11.147,11.147,0,0,1,.286-1.1,3.93,3.93,0,0,1,7.5.627,3.4,3.4,0,0,1-.24,2.176,11.443,11.443,0,0,1-1.358,2.331c-.567.759-1.167,1.495-1.762,2.233a.573.573,0,0,1-.978,0A22.8,22.8,0,0,1,.8,9.6,6.252,6.252,0,0,1,.057,7.79C.038,7.7.019,7.61,0,7.52V6.957m5.622.35A1.686,1.686,0,1,0,3.933,8.995,1.7,1.7,0,0,0,5.622,7.307M17.573,0A.7.7,0,0,1,18,.739c-.014,1.031,0,2.061-.005,3.092a.581.581,0,0,1-.667.665H13.5c0,.074,0,.136,0,.2,0,.48,0,.96,0,1.441a.564.564,0,1,1-1.123,0c0-1.839,0-3.678,0-5.517A.638.638,0,0,1,12.793,0Zm-6.8,16.873c-1.681,0-3.362,0-5.043,0a.26.26,0,0,0-.287.177,1.66,1.66,0,0,1-1.82.918,1.679,1.679,0,0,1-1.344-1.419,1.674,1.674,0,0,1,3.187-.919.184.184,0,0,0,.2.125q5.017,0,10.034,0a1.122,1.122,0,0,0,1.145-.875,1.092,1.092,0,0,0-.61-1.253,1.51,1.51,0,0,0-.595-.116c-1.822-.009-3.643,0-5.465-.006A2.248,2.248,0,0,1,10,9c.4-.017.8-.009,1.195,0a.192.192,0,0,0,.213-.128,1.66,1.66,0,0,1,1.615-.993,1.683,1.683,0,0,1,.51,3.254,1.664,1.664,0,0,1-2.1-.841.247.247,0,0,0-.272-.173c-.351.011-.7,0-1.054.007a1.116,1.116,0,0,0-1.078.89,1.091,1.091,0,0,0,.614,1.235,1.514,1.514,0,0,0,.595.116c1.822.009,3.643,0,5.465.006a2.248,2.248,0,1,1,.043,4.5c-1.359.011-2.718,0-4.077,0h-.9" transform="translate(0 0.003)"/>
    </g>
  </g>
</svg>
