<svg id="Group_2386" data-name="Group 2386" xmlns="http://www.w3.org/2000/svg" xmlns:xlink="http://www.w3.org/1999/xlink" width="204.837" height="178.627" viewBox="0 0 204.837 178.627">
  <defs>
    <clipPath id="clip-path">
      <rect id="Rectangle_1319" data-name="Rectangle 1319" width="204.837" height="178.627" fill="none"/>
    </clipPath>
    <clipPath id="clip-path-3">
      <rect id="Rectangle_1312" data-name="Rectangle 1312" width="16.731" height="10.49" fill="none"/>
    </clipPath>
    <clipPath id="clip-path-4">
      <rect id="Rectangle_1313" data-name="Rectangle 1313" width="17.479" height="9.838" fill="none"/>
    </clipPath>
    <clipPath id="clip-path-5">
      <rect id="Rectangle_1314" data-name="Rectangle 1314" width="157.133" height="96.477" fill="none"/>
    </clipPath>
    <clipPath id="clip-path-6">
      <rect id="Rectangle_1315" data-name="Rectangle 1315" width="103.376" height="34.611" fill="none"/>
    </clipPath>
    <clipPath id="clip-path-7">
      <rect id="Rectangle_1316" data-name="Rectangle 1316" width="20.881" height="13.107" fill="none"/>
    </clipPath>
    <clipPath id="clip-path-8">
      <rect id="Rectangle_1317" data-name="Rectangle 1317" width="18.574" height="11.375" fill="none"/>
    </clipPath>
  </defs>
  <g id="Group_2385" data-name="Group 2385" clip-path="url(#clip-path)">
    <g id="Group_2384" data-name="Group 2384">
      <g id="Group_2383" data-name="Group 2383" clip-path="url(#clip-path)">
        <path id="Path_5081" data-name="Path 5081" d="M5.234,204.6a17.86,17.86,0,0,1,12.632-30.492h2.982a18.018,18.018,0,0,0,2.759-.211l-2.063,1.313a7.416,7.416,0,0,0-4.08,6.614v28A17.784,17.784,0,0,1,5.234,204.6" transform="translate(0 -102.655)" fill="#f2f2f2"/>
        <path id="Path_5082" data-name="Path 5082" d="M87.065,152.463a17.719,17.719,0,0,0,1.1-1.868l.229,1.022-1.327.846Z" transform="translate(-51.397 -88.901)" fill="#f2f2f2"/>
        <path id="Path_5083" data-name="Path 5083" d="M199.6,354.052a17.862,17.862,0,0,1-12.632,30.494H17.866a17.862,17.862,0,0,1-.4-35.719v17.937a7.4,7.4,0,0,0,7.4,7.4H167.2a7.4,7.4,0,0,0,7.4-7.4V348.82h12.374a17.8,17.8,0,0,1,12.632,5.234Z" transform="translate(0 -205.919)" fill="#f2f2f2"/>
        <path id="Path_5084" data-name="Path 5084" d="M441.864,179.644a17.862,17.862,0,0,1-12.632,30.494h-2.843a24.53,24.53,0,0,0-9.529-9.3v-18.71a7.4,7.4,0,0,0-5.651-7.19l-.823-.524h18.849a17.811,17.811,0,0,1,12.632,5.231Z" transform="translate(-242.262 -102.962)" fill="#f2f2f2"/>
        <path id="Path_5085" data-name="Path 5085" d="M5.234,30.492A17.86,17.86,0,0,1,17.866,0H186.972a17.864,17.864,0,1,1,0,35.727h-58.5a17.783,17.783,0,0,0-7.016,1.432H54.494a2.985,2.985,0,0,0-2.874,2.165l-2,6.981L38.091,48.386c-.047.008-.094.016-.141.029a17.873,17.873,0,0,0-17.1-12.687H17.866A17.812,17.812,0,0,1,5.234,30.494Z" fill="#f2f2f2"/>
        <path id="Path_5086" data-name="Path 5086" d="M29.774,124.933a12.659,12.659,0,1,0-12.659-12.659,12.659,12.659,0,0,0,12.659,12.659" transform="translate(-10.103 -58.806)" fill="#f2f2f2"/>
        <path id="Path_5087" data-name="Path 5087" d="M406.878,112.275a12.654,12.654,0,0,1-12.655,12.659h-14.76l-7.288-4.64.508-20.674h21.54a12.652,12.652,0,0,1,12.655,12.655" transform="translate(-219.706 -58.809)" fill="#f2f2f2"/>
        <g id="Group_2367" data-name="Group 2367" transform="translate(152.213 61.487)" opacity="0.75">
          <g id="Group_2366" data-name="Group 2366">
            <g id="Group_2365" data-name="Group 2365" clip-path="url(#clip-path-3)">
              <path id="Path_5088" data-name="Path 5088" d="M388.281,160.58a7.211,7.211,0,0,0-1.747-.211H371.55l.256-10.279Z" transform="translate(-371.55 -150.09)" fill="#e6e6e6"/>
            </g>
          </g>
        </g>
        <g id="Group_2370" data-name="Group 2370" transform="translate(21.545 62.714)" opacity="0.75">
          <g id="Group_2369" data-name="Group 2369">
            <g id="Group_2368" data-name="Group 2368" clip-path="url(#clip-path-4)">
              <path id="Path_5089" data-name="Path 5089" d="M70.067,162.137H55.91a7.338,7.338,0,0,0-3.32.787l15.455-9.838,2.024,9.05Z" transform="translate(-52.59 -153.085)" fill="#e6e6e6"/>
            </g>
          </g>
        </g>
        <g id="Group_2373" data-name="Group 2373" transform="translate(17.466 71.768)" opacity="0.5">
          <g id="Group_2372" data-name="Group 2372">
            <g id="Group_2371" data-name="Group 2371" clip-path="url(#clip-path-5)">
              <path id="Path_5090" data-name="Path 5090" d="M194.115,175.4a7.24,7.24,0,0,0-1.749-.211H50.034a7.305,7.305,0,0,0-3.32.787,7.4,7.4,0,0,0-4.078,6.614v81.676a7.4,7.4,0,0,0,7.4,7.4H192.368a7.4,7.4,0,0,0,7.4-7.4V182.586a7.394,7.394,0,0,0-5.651-7.188ZM84.339,255.484a3.013,3.013,0,0,1-3.011,3.011H55.839a3.013,3.013,0,0,1-3.011-3.011v-25.49a3.015,3.015,0,0,1,3.011-3.013h25.49a3.015,3.015,0,0,1,3.011,3.013Zm57.372-56.43a7.218,7.218,0,0,1-5.123,2.124H104.237a7.248,7.248,0,0,1,0-14.5h32.352a7.245,7.245,0,0,1,5.121,12.37Zm25.836,58.788a1.389,1.389,0,0,1-1.387,1.391H151.13a1.387,1.387,0,0,1-1.387-1.391v-4.287a1.385,1.385,0,0,1,1.387-1.387h15.031a1.385,1.385,0,0,1,1.387,1.387Zm21.612,0a1.389,1.389,0,0,1-1.387,1.391H172.744a1.391,1.391,0,0,1-1.391-1.391v-4.287a1.387,1.387,0,0,1,1.391-1.387h15.029a1.385,1.385,0,0,1,1.387,1.387Z" transform="translate(-42.635 -175.185)" fill="#b3b3b3"/>
            </g>
          </g>
        </g>
        <path id="Path_5091" data-name="Path 5091" d="M222.162,210.5a7.245,7.245,0,0,1-7.245,7.247H182.565a7.247,7.247,0,0,1,0-14.494h32.352a7.246,7.246,0,0,1,7.245,7.245Z" transform="translate(-103.497 -119.984)" fill="#e6e6e6"/>
        <path id="Path_5092" data-name="Path 5092" d="M214.031,217.473H181.68a7.862,7.862,0,0,1,0-15.723h32.352a7.862,7.862,0,0,1,0,15.723M181.68,202.979a6.633,6.633,0,0,0,0,13.265h32.352a6.632,6.632,0,0,0,0-13.263H181.68Z" transform="translate(-102.611 -119.099)" fill="#a7d0f9"/>
        <path id="Path_5093" data-name="Path 5093" d="M96.016,301.62H70.526a3.011,3.011,0,0,0-3.011,3.011v25.49a3.011,3.011,0,0,0,3.011,3.011h25.49a3.011,3.011,0,0,0,3.011-3.011v-25.49a3.011,3.011,0,0,0-3.011-3.011" transform="translate(-39.856 -178.055)" fill="#e6e6e6"/>
        <path id="Path_5094" data-name="Path 5094" d="M95.13,332.861H69.641a3.63,3.63,0,0,1-3.626-3.626v-25.49a3.63,3.63,0,0,1,3.626-3.626H95.13a3.63,3.63,0,0,1,3.626,3.626v25.49a3.63,3.63,0,0,1-3.626,3.626m-25.49-31.512a2.4,2.4,0,0,0-2.4,2.4v25.49a2.4,2.4,0,0,0,2.4,2.4H95.13a2.4,2.4,0,0,0,2.4-2.4v-25.49a2.4,2.4,0,0,0-2.4-2.4Z" transform="translate(-38.971 -177.17)" fill="#a7d0f9"/>
        <path id="Path_5095" data-name="Path 5095" d="M194.079,131.455H89.137l-2.024-9.05-2.12-9.492a4.023,4.023,0,0,1,3.212-4.838l11.532-2.081,26.694-4.818a4.022,4.022,0,0,1,4.345,2.225l1.835,3.845a4.022,4.022,0,0,0,4.142,2.257l44.857-5.721a4.025,4.025,0,0,1,4.336,2.743l8.134,24.933Z" transform="translate(-50.116 -59.689)" fill="#e6e6e6"/>
        <g id="Group_2376" data-name="Group 2376" transform="translate(49.617 37.155)" opacity="0.5">
          <g id="Group_2375" data-name="Group 2375">
            <g id="Group_2374" data-name="Group 2374" clip-path="url(#clip-path-6)">
              <path id="Path_5096" data-name="Path 5096" d="M224.491,93.759l-.524,21.268-.256,10.279h-8.253l-8.134-24.933a4.025,4.025,0,0,0-4.336-2.743l-44.857,5.721a4.022,4.022,0,0,1-4.142-2.257l-1.835-3.845a4.022,4.022,0,0,0-4.345-2.225l-26.694,4.818,2-6.981a2.986,2.986,0,0,1,2.874-2.167H221.5a2.988,2.988,0,0,1,2.987,3.06Z" transform="translate(-121.115 -90.695)" fill="#b3b3b3"/>
            </g>
          </g>
        </g>
        <path id="Path_5097" data-name="Path 5097" d="M321.884,364.487v4.287a1.389,1.389,0,0,1-1.387,1.391H305.467a1.387,1.387,0,0,1-1.387-1.391v-4.287a1.385,1.385,0,0,1,1.387-1.387H320.5a1.385,1.385,0,0,1,1.387,1.387" transform="translate(-179.507 -214.349)" fill="#e6e6e6"/>
        <path id="Path_5098" data-name="Path 5098" d="M374.636,364.487v4.287a1.389,1.389,0,0,1-1.387,1.391H358.221a1.391,1.391,0,0,1-1.391-1.391v-4.287a1.387,1.387,0,0,1,1.391-1.387H373.25a1.385,1.385,0,0,1,1.387,1.387" transform="translate(-210.647 -214.349)" fill="#e6e6e6"/>
        <path id="Path_5099" data-name="Path 5099" d="M386.988,256.128a24.422,24.422,0,1,1-24.423-24.423,24.417,24.417,0,0,1,24.423,24.423Z" transform="translate(-199.617 -136.782)" fill="#fff"/>
        <path id="Path_5100" data-name="Path 5100" d="M362.418,280.51a24.518,24.518,0,1,1,10.731-2.47,24.217,24.217,0,0,1-10.731,2.468Zm0-48.845a24.322,24.322,0,1,0,24.32,24.318,24.249,24.249,0,0,0-24.32-24.318" transform="translate(-199.469 -136.638)"/>
        <g id="Group_2379" data-name="Group 2379" transform="translate(151.584 60.385)" opacity="0.75">
          <g id="Group_2378" data-name="Group 2378">
            <g id="Group_2377" data-name="Group 2377" clip-path="url(#clip-path-7)">
              <path id="Path_5101" data-name="Path 5101" d="M390.9,160.505l-3.671-.918a6.639,6.639,0,0,0-1.6-.193H370.015l.3-12L390.9,160.507Zm-19.621-2.339h13.658L371.486,149.6l-.213,8.562Z" transform="translate(-370.015 -147.4)" fill="#999"/>
            </g>
          </g>
        </g>
        <g id="Group_2382" data-name="Group 2382" transform="translate(21.213 61.727)" opacity="0.75">
          <g id="Group_2381" data-name="Group 2381">
            <g id="Group_2380" data-name="Group 2380" clip-path="url(#clip-path-8)">
              <path id="Path_5102" data-name="Path 5102" d="M52.386,162.049l-.606-1.067,16.192-10.307,2.382,10.653H55.43a6.673,6.673,0,0,0-3.044.721m3.068-1.95H68.82l-1.665-7.448Z" transform="translate(-51.78 -150.675)" fill="#999"/>
            </g>
          </g>
        </g>
        <path id="Path_5103" data-name="Path 5103" d="M191.477,271.387H49.143a8.022,8.022,0,0,1-8.013-8.013V181.7a8.012,8.012,0,0,1,8.013-8.013H191.477a7.842,7.842,0,0,1,1.895.229,7.981,7.981,0,0,1,6.12,7.784v81.676a8.022,8.022,0,0,1-8.013,8.013ZM49.143,174.912a6.673,6.673,0,0,0-3.044.721,6.748,6.748,0,0,0-3.74,6.063v81.676a6.792,6.792,0,0,0,6.784,6.784H191.477a6.792,6.792,0,0,0,6.784-6.784V181.7a6.755,6.755,0,0,0-5.182-6.592h0a6.539,6.539,0,0,0-1.6-.195H49.143Zm31.295,83.311H54.948a3.63,3.63,0,0,1-3.626-3.626v-25.49a3.63,3.63,0,0,1,3.626-3.626h25.49a3.63,3.63,0,0,1,3.626,3.626V254.6a3.63,3.63,0,0,1-3.626,3.626m-25.49-31.512a2.4,2.4,0,0,0-2.4,2.4V254.6a2.4,2.4,0,0,0,2.4,2.4h25.49a2.4,2.4,0,0,0,2.4-2.4v-25.49a2.4,2.4,0,0,0-2.4-2.4Zm80.75-25.805H103.347a7.862,7.862,0,0,1,0-15.723H135.7a7.862,7.862,0,0,1,0,15.723m-32.352-14.494a6.633,6.633,0,0,0,0,13.265H135.7a6.632,6.632,0,0,0,0-13.263H103.347Z" transform="translate(-24.28 -102.531)" fill="#999"/>
        <path id="Path_5104" data-name="Path 5104" d="M181.921,369.379H159.445a.615.615,0,0,1,0-1.229h22.477a.615.615,0,0,1,0,1.229" transform="translate(-93.762 -217.33)" fill="#999"/>
        <path id="Path_5105" data-name="Path 5105" d="M181.921,356.049H159.445a.615.615,0,1,1,0-1.229h22.477a.615.615,0,0,1,0,1.229" transform="translate(-93.762 -209.461)" fill="#999"/>
        <path id="Path_5106" data-name="Path 5106" d="M181.921,342.714H159.445a.615.615,0,0,1,0-1.229h22.477a.615.615,0,0,1,0,1.229" transform="translate(-93.762 -201.589)" fill="#999"/>
        <path id="Path_5107" data-name="Path 5107" d="M137.087,392.344H41.745a.615.615,0,1,1,0-1.229h95.343a.615.615,0,0,1,0,1.229" transform="translate(-24.28 -230.887)" fill="#999"/>
        <path id="Path_5108" data-name="Path 5108" d="M329.238,392.344H303.19a.615.615,0,0,1,0-1.229h26.049a.615.615,0,0,1,0,1.229" transform="translate(-178.619 -230.887)" fill="#999"/>
        <path id="Path_5109" data-name="Path 5109" d="M194.039,131.183H87.756l-4.25-19.023a4.635,4.635,0,0,1,3.7-5.576l38.226-6.9a4.645,4.645,0,0,1,5.008,2.565l1.835,3.845a3.4,3.4,0,0,0,3.509,1.913l44.859-5.721a4.648,4.648,0,0,1,5,3.161l8.4,25.738Zm-105.3-1.229h103.6l-7.872-24.128A3.415,3.415,0,0,0,180.8,103.5l-44.857,5.721a4.622,4.622,0,0,1-4.773-2.6l-1.835-3.845a3.412,3.412,0,0,0-3.679-1.884L87.43,107.8a3.409,3.409,0,0,0-2.722,4.1l4.037,18.062Z" transform="translate(-49.228 -58.803)" fill="#999"/>
        <path id="Path_5110" data-name="Path 5110" d="M223.079,125.041h-9.3l-8.273-25.357a3.415,3.415,0,0,0-3.675-2.323l-44.857,5.721a4.622,4.622,0,0,1-4.773-2.6l-1.835-3.845a3.412,3.412,0,0,0-3.679-1.884l-27.665,4.994,2.268-7.929a3.62,3.62,0,0,1,3.466-2.612h95.515a3.6,3.6,0,0,1,3.6,3.689l-.524,21.268Zm-8.406-1.229h7.206l.24-9.681.524-21.268a2.372,2.372,0,0,0-2.372-2.429H124.756a2.387,2.387,0,0,0-2.284,1.721l-1.725,6.03,25.721-4.644a4.645,4.645,0,0,1,5.008,2.565l1.835,3.845a3.4,3.4,0,0,0,3.509,1.913l44.859-5.721a4.648,4.648,0,0,1,5,3.161l8,24.509Z" transform="translate(-70.264 -52.66)" fill="#999"/>
        <path id="Path_5111" data-name="Path 5111" d="M319.607,369.894H304.576a2,2,0,0,1-2-2.005V363.6a2,2,0,0,1,2-2h15.031a2,2,0,0,1,2,2v4.287a2,2,0,0,1-2,2.005m-15.031-7.065a.773.773,0,0,0-.772.772v4.287a.775.775,0,0,0,.772.776h15.031a.775.775,0,0,0,.772-.776V363.6a.773.773,0,0,0-.772-.772Z" transform="translate(-178.619 -213.463)" fill="#999"/>
        <path id="Path_5112" data-name="Path 5112" d="M372.359,369.894H357.33a2.007,2.007,0,0,1-2.005-2.005V363.6a2,2,0,0,1,2.005-2h15.029a2,2,0,0,1,2,2v4.287a2,2,0,0,1-2,2.005m-15.029-7.065a.775.775,0,0,0-.776.772v4.287a.777.777,0,0,0,.776.776h15.029a.775.775,0,0,0,.772-.776V363.6a.773.773,0,0,0-.772-.772Z" transform="translate(-209.759 -213.463)" fill="#999"/>
        <path id="Path_5113" data-name="Path 5113" d="M107.129,65.5a.612.612,0,0,1-.485-.238L99.89,56.542a.615.615,0,0,1,.973-.754l6.753,8.718a.616.616,0,0,1-.485.991Z" transform="translate(-58.892 -32.793)" fill="#999"/>
        <path id="Path_5114" data-name="Path 5114" d="M127.65,59.748a.614.614,0,0,1-.615-.615V50.17a.615.615,0,1,1,1.229,0v8.964a.614.614,0,0,1-.615.615" transform="translate(-74.993 -29.254)" fill="#999"/>
        <path id="Path_5115" data-name="Path 5115" d="M328.712,38.873a.615.615,0,0,1-.606-.516l-3.792-23.45a.614.614,0,0,1,1.213-.2l3.792,23.45a.615.615,0,0,1-.508.7.531.531,0,0,1-.1.008" transform="translate(-191.447 -8.38)" fill="#999"/>
        <path id="Path_5116" data-name="Path 5116" d="M348.571,57.978a.638.638,0,0,1-.174-.025.614.614,0,0,1-.414-.764L351.007,47a.614.614,0,1,1,1.178.35L349.161,57.54a.617.617,0,0,1-.59.44Z" transform="translate(-205.41 -27.484)" fill="#999"/>
        <path id="Path_5117" data-name="Path 5117" d="M309.742,58.637a.618.618,0,0,1-.473-.221l-6.555-7.86a.615.615,0,1,1,.944-.789l6.555,7.86a.616.616,0,0,1-.078.866.609.609,0,0,1-.393.143" transform="translate(-178.617 -29.249)" fill="#999"/>
        <path id="Path_5118" data-name="Path 5118" d="M359.959,67.3a.615.615,0,0,1-.33-1.135l8.841-5.588a.615.615,0,0,1,.658,1.039l-8.841,5.588a.619.619,0,0,1-.328.094Z" transform="translate(-212.131 -35.707)" fill="#999"/>
        <path id="Path_5119" data-name="Path 5119" d="M64.118,126.338a.612.612,0,0,1-.471-.219l-7.96-9.465a.615.615,0,0,1,.942-.791l7.96,9.465a.614.614,0,0,1-.471,1.01" transform="translate(-32.789 -68.267)" fill="#999"/>
        <path id="Path_5120" data-name="Path 5120" d="M58.9,146.854H50.315a.615.615,0,1,1,0-1.229H58.9a.615.615,0,1,1,0,1.229" transform="translate(-29.339 -85.967)" fill="#999"/>
        <path id="Path_5121" data-name="Path 5121" d="M204.992,252.979H75.59a.615.615,0,1,1,0-1.229h129.4a.615.615,0,0,1,0,1.229" transform="translate(-44.26 -148.615)" fill="#999"/>
        <path id="Path_5122" data-name="Path 5122" d="M361.68,280.284a25.034,25.034,0,1,1,10.955-2.522,24.74,24.74,0,0,1-10.955,2.519Zm0-48.845a23.81,23.81,0,1,0,23.808,23.806,23.738,23.738,0,0,0-23.808-23.806" transform="translate(-198.731 -135.9)" fill="#999"/>
        <path id="Path_5123" data-name="Path 5123" d="M386.988,256.128a24.422,24.422,0,1,1-24.423-24.423,24.417,24.417,0,0,1,24.423,24.423Z" transform="translate(-199.617 -136.782)" fill="#e6e6e6"/>
        <path id="Path_5124" data-name="Path 5124" d="M391.968,283.22l-2.321,2.321a1.979,1.979,0,0,1-2.8,0l-6.11-6.11-6.112,6.11a1.979,1.979,0,0,1-2.8,0l-2.321-2.321a1.978,1.978,0,0,1,0-2.8l6.11-6.108-6.11-6.112a1.977,1.977,0,0,1,0-2.8l2.321-2.321a1.979,1.979,0,0,1,2.8,0l6.112,6.112,6.11-6.112a1.979,1.979,0,0,1,2.8,0l2.321,2.321a1.977,1.977,0,0,1,0,2.8l-6.11,6.112,6.11,6.108a1.978,1.978,0,0,1,0,2.8" transform="translate(-217.789 -154.962)" fill="#b3b3b3"/>
      </g>
    </g>
  </g>
</svg>
