<svg id="Group_196" data-name="Group 196" xmlns="http://www.w3.org/2000/svg" xmlns:xlink="http://www.w3.org/1999/xlink" width="16.502" height="18" viewBox="0 0 16.502 18">
  <defs>
    <clipPath id="clip-path">
      <rect id="Rectangle_195" data-name="Rectangle 195" width="16.502" height="18" fill="#fff"/>
    </clipPath>
  </defs>
  <g id="Group_195" data-name="Group 195" clip-path="url(#clip-path)">
    <path id="Path_536" data-name="Path 536" d="M75.553,0a1.673,1.673,0,0,1,.939.5,1.471,1.471,0,0,1,.381.976c.006.544.007,1.089-.013,1.633A1.485,1.485,0,0,1,75.332,4.5c-.551,0-1.1,0-1.652,0h-.165v.747h3.252a1.591,1.591,0,0,1,.961.278c.3.213.323.441.055.695A3.206,3.206,0,0,0,76.9,7.476,12.84,12.84,0,0,0,76.574,8.8c-.043.188-.064.381-.1.57a.39.39,0,0,1-.457.378c-.726,0-1.453,0-2.18,0H70.287c-.354,0-.455-.084-.521-.431-.094-.494-.162-.994-.287-1.48a3.258,3.258,0,0,0-.923-1.53c-.046-.045-.094-.089-.138-.135a.378.378,0,0,1,.049-.605,1.594,1.594,0,0,1,1.018-.319h3.248V4.5h-.178c-.545,0-1.09,0-1.635,0a1.492,1.492,0,0,1-1.5-1.145,1.3,1.3,0,0,1-.047-.346c0-.585-.009-1.172.028-1.755A1.466,1.466,0,0,1,70.584.032c.039-.008.077-.021.116-.032Z" transform="translate(-64.875)" fill="#fff"/>
    <path id="Path_537" data-name="Path 537" d="M7.822,126.763H7.61c-1.072,0-2.144,0-3.217,0a2.255,2.255,0,0,1-2.286-1.886c-.108-.581-.195-1.166-.291-1.749-.008-.046-.016-.092-.025-.138-.1-.553-.229-.676-.782-.742a1.113,1.113,0,0,1-.84-1.7,1.191,1.191,0,0,1,1.3-.517A2.892,2.892,0,0,1,4,122.534c.1.613.209,1.223.3,1.836.019.127.072.146.182.146q3.762,0,7.523,0c.118,0,.172-.022.193-.155.107-.682.211-1.365.346-2.042a2.86,2.86,0,0,1,2.931-2.3,1.117,1.117,0,0,1,.057,2.221l-.174.023a.648.648,0,0,0-.632.6q-.164.96-.32,1.922a2.26,2.26,0,0,1-2.31,1.981c-1.066,0-2.133,0-3.2,0h-.23c.029.306.054.595.083.883.042.414.092.826.125,1.241.01.13.055.164.178.172a6.127,6.127,0,0,1,1.9.391,2.711,2.711,0,0,1,.7.4.81.81,0,0,1-.029,1.359,2.916,2.916,0,0,1-.832.437,8.691,8.691,0,0,1-3.509.317,5.866,5.866,0,0,1-1.742-.382,2.693,2.693,0,0,1-.767-.476.785.785,0,0,1,.016-1.208,2.437,2.437,0,0,1,1.183-.584c.489-.113.989-.177,1.486-.25.114-.017.156-.045.167-.165.06-.653.131-1.3.2-1.957.005-.051,0-.1,0-.174" transform="translate(0 -114.01)" fill="#fff"/>
  </g>
</svg>
