<svg id="Group_243" data-name="Group 243" xmlns="http://www.w3.org/2000/svg" xmlns:xlink="http://www.w3.org/1999/xlink" width="15.155" height="18" viewBox="0 0 15.155 18">
  <defs>
    <clipPath id="clip-path">
      <rect id="Rectangle_228" data-name="Rectangle 228" width="15.155" height="18" fill="#fff"/>
    </clipPath>
  </defs>
  <g id="Group_242" data-name="Group 242" clip-path="url(#clip-path)">
    <path id="Path_556" data-name="Path 556" d="M2.416,10.8a1.813,1.813,0,0,0,1.49,1.089,16.936,16.936,0,0,0,1.825-.014c.429-.011.857-.042,1.286-.056.29-.009.58,0,.87-.006.145,0,.289-.017.434-.014.795.016,1.591.08,2.383.043a1.927,1.927,0,0,0,1.733-1.153,5.082,5.082,0,0,0,.393-1.162,11.252,11.252,0,0,0,.129-3.721,7.2,7.2,0,0,0-2.307-4.546A4.715,4.715,0,0,0,8.026.038,4.766,4.766,0,0,0,3.813,1.659a7.817,7.817,0,0,0-2,5.616c.021.394.033.839.071,1.281a5.994,5.994,0,0,0,.53,2.249m.4-5.712a1.611,1.611,0,0,1,.212-.276,1.912,1.912,0,0,0,2.257.294,4.292,4.292,0,0,0,1.9-1.37A.329.329,0,0,1,7.6,3.618a2.755,2.755,0,0,1,1.62,1.3,1.541,1.541,0,0,0,.136.207A3.135,3.135,0,0,0,7.812,2.843c.019-.06.034-.115.055-.169s.047-.108.079-.18a4.061,4.061,0,0,1,1.632,1.2,4.991,4.991,0,0,1,.7,1.331c.057.148.114.3.183.44.1.215.246.267.428.114a6.019,6.019,0,0,0,.639-.648c.146-.166.254-.2.4-.026a1.006,1.006,0,0,1,.214.416,1.389,1.389,0,0,1-.322,1.262,1.108,1.108,0,0,1-.5.286.274.274,0,0,0-.233.213A7.62,7.62,0,0,1,9.74,9.785a3.526,3.526,0,0,1-1.711,1.278,2.24,2.24,0,0,1-2.115-.5A5.475,5.475,0,0,1,4.356,8.522c-.223-.478-.379-.987-.573-1.48-.024-.062-.089-.146-.142-.151a.965.965,0,0,1-.8-.662A1.326,1.326,0,0,1,2.82,5.093M15.155,16.934a3.939,3.939,0,0,0-.164-1.059,5.268,5.268,0,0,0-1.952-2.654,5.562,5.562,0,0,0-1.385-.784c-.075.114-.144.219-.211.324A4.092,4.092,0,0,1,9.77,14.3c-.69.338-1.361.715-2.037,1.082a.287.287,0,0,1-.311,0c-.647-.351-1.286-.718-1.95-1.034a4.241,4.241,0,0,1-1.814-1.675c-.05-.082-.108-.16-.164-.243A6.139,6.139,0,0,0,.886,14.459,3.864,3.864,0,0,0,.017,16.6c-.006.165-.01.249-.014.3A1.023,1.023,0,0,0,1.023,18h13.11a1.022,1.022,0,0,0,1.022-1.046c0-.006,0-.013,0-.02" transform="translate(-0.001 0)" fill="#fff"/>
  </g>
</svg>
