<svg xmlns="http://www.w3.org/2000/svg" width="14.054" height="14.053" viewBox="0 0 14.054 14.053">
  <g id="Group_331" data-name="Group 331" transform="translate(-0.34 -0.131)">
    <g id="Group_332" data-name="Group 332" transform="translate(0 0)">
      <path id="Path_553" data-name="Path 553" d="M6.587,0h.878c.235.03.471.052.7.092a6.878,6.878,0,0,1,4.192,2.376,6.809,6.809,0,0,1,1.6,5.684,6.779,6.779,0,0,1-2.7,4.474,6.826,6.826,0,0,1-5.177,1.359,6.782,6.782,0,0,1-3.693-1.694A6.917,6.917,0,0,1,.11,8.251C.062,7.991.036,7.727,0,7.465V6.587c.031-.235.054-.471.093-.7A6.914,6.914,0,0,1,2.024,2.1,6.886,6.886,0,0,1,5.816.108C6.072.063,6.33.036,6.587,0M6.444,5.412h0c0,.608,0,1.217,0,1.825a.731.731,0,0,0,.234.561q1.4,1.387,2.786,2.783c.036.036.07.072.108.1a.581.581,0,0,0,.949-.3.587.587,0,0,0-.188-.6q-1.306-1.3-2.612-2.608a.344.344,0,0,1-.111-.276c.006-.357,0-.713,0-1.07,0-.759,0-1.519,0-2.278a.6.6,0,0,0-.19-.481.558.558,0,0,0-.626-.1.543.543,0,0,0-.35.527c0,.636,0,1.272,0,1.907" transform="translate(0.34 0.131)" fill="#fff"/>
    </g>
  </g>
</svg>
