<?xml version="1.0" encoding="UTF-8"?>
<svg version="1.1" xmlns="http://www.w3.org/2000/svg" width="130" height="66">
<path d="M0 0 C0.66 0.66 1.32 1.32 2 2 C2.99 1.34 3.98 0.68 5 0 C10.24544666 -0.54640069 10.24544666 -0.54640069 12.8125 1.3125 C15.46479516 5.08155102 15.10328864 8.74153797 15.0625 13.1875 C15.05347656 14.45980469 15.04445313 15.73210938 15.03515625 17.04296875 C15.02355469 18.01878906 15.01195313 18.99460937 15 20 C12.69 20 10.38 20 8 20 C8 15.38 8 10.76 8 6 C7.01 6.33 6.02 6.66 5 7 C4.67 11.29 4.34 15.58 4 20 C1.69 20 -0.62 20 -3 20 C-3.33 15.71 -3.66 11.42 -4 7 C-4.99 6.67 -5.98 6.34 -7 6 C-7.33 10.62 -7.66 15.24 -8 20 C-9.98 20 -11.96 20 -14 20 C-14 13.73 -14 7.46 -14 1 C-3.81818182 -0.27272727 -3.81818182 -0.27272727 0 0 Z " fill="#E01169" transform="translate(14,8)"/>
<path d="M0 0 C2.31 0 4.62 0 7 0 C7 9.24 7 18.48 7 28 C-7.51165236 29.49185211 -7.51165236 29.49185211 -12 26 C-14.33843365 22.27976465 -14.1723152 19.05641174 -13.4609375 14.8671875 C-12.78613124 12.13365028 -12.21958774 10.78999011 -10 9 C-6.58368887 8.11791967 -3.26499753 7.36750123 0 9 C0 6.03 0 3.06 0 0 Z M-5 14 C-6.41577477 15.18424326 -6.41577477 15.18424326 -6.0625 18.5625 C-6.041875 19.696875 -6.02125 20.83125 -6 22 C-4.34385343 22.38218767 -2.67542976 22.71395102 -1 23 C0.41577477 21.81575674 0.41577477 21.81575674 0.0625 18.4375 C0.041875 17.303125 0.02125 16.16875 0 15 C-1.65614657 14.61781233 -3.32457024 14.28604898 -5 14 Z " fill="#DA1065" transform="translate(78,0)"/>
<path d="M0 0 C1.4540625 0.0309375 1.4540625 0.0309375 2.9375 0.0625 C3.2675 3.0325 3.5975 6.0025 3.9375 9.0625 C5.175 8.959375 6.4125 8.85625 7.6875 8.75 C10.98376073 8.77337774 11.71818715 8.89253254 14.4375 11 C16.46790917 15.14541872 16.73402875 18.52967657 15.9375 23.0625 C14.375 26.0625 14.375 26.0625 11.9375 28.0625 C8.02477759 29.02351954 5.77097302 29.34032434 1.9375 28.0625 C-0.06211564 28.02329185 -2.06299364 28.01806653 -4.0625 28.0625 C-4.09136338 23.58334672 -4.10925187 19.10421709 -4.125 14.625 C-4.13337891 13.34560547 -4.14175781 12.06621094 -4.15039062 10.74804688 C-4.15361328 9.53310547 -4.15683594 8.31816406 -4.16015625 7.06640625 C-4.16539307 5.94049072 -4.17062988 4.8145752 -4.17602539 3.65454102 C-4.01128933 -0.10675524 -3.82451626 0.07805135 0 0 Z M4.9375 14.0625 C2.58776182 15.96005144 2.58776182 15.96005144 2.8125 19.1875 C2.85375 20.13625 2.895 21.085 2.9375 22.0625 C4.59364657 22.44468767 6.26207024 22.77645102 7.9375 23.0625 C9.35327477 21.87825674 9.35327477 21.87825674 9 18.5 C8.979375 17.365625 8.95875 16.23125 8.9375 15.0625 C7.04570797 14.3810177 7.04570797 14.3810177 4.9375 14.0625 Z " fill="#DE1168" transform="translate(15.0625,28.9375)"/>
<path d="M0 0 C2.64 0 5.28 0 8 0 C8.66 2.64 9.32 5.28 10 8 C10.99 5.36 11.98 2.72 13 0 C15.31 0 17.62 0 20 0 C18.15429548 9.89968787 15.96820945 20.72588366 7.6484375 27.14453125 C6 28 6 28 3 28 C2.67 26.02 2.34 24.04 2 22 C3.32 21.67 4.64 21.34 6 21 C5.58826685 14.9612471 3.50012308 10.08668016 1.05859375 4.57421875 C0 2 0 2 0 0 Z " fill="#E01169" transform="translate(110,38)"/>
<path d="M0 0 C3.25817013 3.99460585 3.32878375 7.27337947 3.1875 12.3125 C3.16042969 13.56675781 3.13335937 14.82101563 3.10546875 16.11328125 C3.07066406 17.06589844 3.03585938 18.01851562 3 19 C0.69 19 -1.62 19 -4 19 C-4.33 14.71 -4.66 10.42 -5 6 C-5.99 6 -6.98 6 -8 6 C-8.33 10.29 -8.66 14.58 -9 19 C-11.31 19 -13.62 19 -16 19 C-16 12.73 -16 6.46 -16 0 C-13.69 0 -11.38 0 -9 0 C-5.78176644 -1.60911678 -3.4113678 -0.83787981 0 0 Z " fill="#E5126C" transform="translate(59,9)"/>
<path d="M0 0 C2.31 0 4.62 0 7 0 C7 4.62 7 9.24 7 14 C7.99 13.67 8.98 13.34 10 13 C10.33 8.71 10.66 4.42 11 0 C13.31 0 15.62 0 18 0 C18 6.27 18 12.54 18 19 C4.77844311 20.46906188 4.77844311 20.46906188 1.5625 18.53125 C-0.62314056 14.99051229 -0.43462036 11.76904329 -0.25 7.75 C-0.23195313 7.00492188 -0.21390625 6.25984375 -0.1953125 5.4921875 C-0.14835649 3.66090299 -0.07661652 1.83028351 0 0 Z " fill="#DE1068" transform="translate(75,38)"/>
<path d="M0 0 C2.31 0 4.62 0 7 0 C7.33 4.29 7.66 8.58 8 13 C8.99 13 9.98 13 11 13 C11.33 8.71 11.66 4.42 12 0 C14.31 0 16.62 0 19 0 C19 6.27 19 12.54 19 19 C16.69 19 14.38 19 12 19 C10.1746875 19.3403125 10.1746875 19.3403125 8.3125 19.6875 C5 20 5 20 2.625 18.8125 C-0.63582994 15.17542046 -0.10943087 10.94308676 -0.0625 6.25 C-0.05347656 5.07953125 -0.04445313 3.9090625 -0.03515625 2.703125 C-0.02355469 1.81109375 -0.01195313 0.9190625 0 0 Z " fill="#E9126D" transform="translate(101,9)"/>
<path d="M0 0 C2.62241787 0.58930739 3.519097 1.2944575 5.0859375 3.46875 C5.76547185 6.47218806 5.86238154 9.3836777 6.0859375 12.46875 C0.6409375 12.96375 0.6409375 12.96375 -4.9140625 13.46875 C-1.85558402 14.01247951 0.97366555 14.46875 4.0859375 14.46875 C4.4159375 16.11875 4.7459375 17.76875 5.0859375 19.46875 C0.24309944 21.08302935 -4.10634927 21.21541416 -8.7890625 19.28125 C-11.37599945 17.07474495 -12.1601122 15.7861313 -12.9140625 12.46875 C-12.83869985 8.24844171 -12.29754419 6.03198873 -9.9140625 2.53125 C-6.33267728 0.06904766 -4.23560497 -0.05782396 0 0 Z M-4.9140625 5.46875 C-5.2440625 6.12875 -5.5740625 6.78875 -5.9140625 7.46875 C-4.2640625 7.46875 -2.6140625 7.46875 -0.9140625 7.46875 C-0.9140625 6.80875 -0.9140625 6.14875 -0.9140625 5.46875 C-2.2340625 5.46875 -3.5540625 5.46875 -4.9140625 5.46875 Z " fill="#DA1166" transform="translate(45.9140625,37.53125)"/>
<path d="M0 0 C1.29550781 -0.03867187 1.29550781 -0.03867187 2.6171875 -0.078125 C5.80378784 0.33881336 7.00788183 0.80238148 9.125 3.25 C9.58218128 6.09566041 9.82021446 8.58616173 9.875 11.4375 C9.90464844 12.18708984 9.93429688 12.93667969 9.96484375 13.70898438 C10.0354079 15.55541307 10.08248476 17.40271261 10.125 19.25 C7.87715576 19.49942657 5.62652494 19.72383488 3.375 19.9375 C2.12203125 20.06511719 0.8690625 20.19273438 -0.421875 20.32421875 C-3.875 20.25 -3.875 20.25 -6.296875 18.953125 C-7.875 17.25 -7.875 17.25 -8.375 14.3125 C-7.77126588 10.61462852 -6.80515471 9.51040506 -3.875 7.25 C-2.885 6.92 -1.895 6.59 -0.875 6.25 C-2.525 6.25 -4.175 6.25 -5.875 6.25 C-6.205 4.6 -6.535 2.95 -6.875 1.25 C-4.43545342 0.03022671 -2.72194151 0.04846187 0 0 Z M-0.875 11.25 C-0.875 12.57 -0.875 13.89 -0.875 15.25 C0.445 14.59 1.765 13.93 3.125 13.25 C3.125 12.59 3.125 11.93 3.125 11.25 C1.805 11.25 0.485 11.25 -0.875 11.25 Z " fill="#DC1167" transform="translate(61.875,37.75)"/>
<path d="M0 0 C1.8871875 0.061875 1.8871875 0.061875 3.8125 0.125 C3.4825 1.775 3.1525 3.425 2.8125 5.125 C1.8225 5.455 0.8325 5.785 -0.1875 6.125 C-0.5175 7.115 -0.8475 8.105 -1.1875 9.125 C0.1325 9.125 1.4525 9.125 2.8125 9.125 C2.4825 10.775 2.1525 12.425 1.8125 14.125 C0.8225 14.125 -0.1675 14.125 -1.1875 14.125 C-1.1875 18.745 -1.1875 23.365 -1.1875 28.125 C-3.4975 28.125 -5.8075 28.125 -8.1875 28.125 C-8.1875 23.505 -8.1875 18.885 -8.1875 14.125 C-9.1775 13.795 -10.1675 13.465 -11.1875 13.125 C-11.1875 11.805 -11.1875 10.485 -11.1875 9.125 C-10.1975 9.125 -9.2075 9.125 -8.1875 9.125 C-8.0328125 7.454375 -8.0328125 7.454375 -7.875 5.75 C-7.648125 4.55375 -7.42125 3.3575 -7.1875 2.125 C-4.09861478 0.06574319 -3.47814073 -0.1140374 0 0 Z " fill="#DE1168" transform="translate(97.1875,-0.125)"/>
<path d="M0 0 C0 1.65 0 3.3 0 5 C1.32 5 2.64 5 4 5 C4 6.65 4 8.3 4 10 C2.68 10 1.36 10 0 10 C0 12.97 0 15.94 0 19 C1.32 19 2.64 19 4 19 C4.042721 20.66611905 4.04063832 22.33382885 4 24 C3 25 3 25 0.1875 25.3125 C-3 25 -3 25 -5.375 23.6875 C-7.97405576 19.38906162 -7.30405549 14.89867185 -7 10 C-7.66 10 -8.32 10 -9 10 C-9 8.35 -9 6.7 -9 5 C-8.34 5 -7.68 5 -7 5 C-7 3.68 -7 2.36 -7 1 C-4.53721199 -0.231394 -2.7204945 -0.07159196 0 0 Z " fill="#E0116B" transform="translate(105,33)"/>
<path d="M0 0 C1.98 0 3.96 0 6 0 C6 9.24 6 18.48 6 28 C4.02 28 2.04 28 0 28 C0 18.76 0 9.52 0 0 Z " fill="#EC136F" transform="translate(124,0)"/>
<path d="M0 0 C2.31 0 4.62 0 7 0 C7 6.27 7 12.54 7 19 C4.69 19 2.38 19 0 19 C0 12.73 0 6.46 0 0 Z " fill="#D6105F" transform="translate(33,9)"/>
<path d="" fill="#DF5F00" transform="translate(0,0)"/>
<path d="M0 0 C2 1 2 1 2 1 Z " fill="#7F5500" transform="translate(45,1)"/>
<path d="" fill="#000000" transform="translate(0,0)"/>
<path d="" fill="#000000" transform="translate(0,0)"/>
</svg>
